<mxfile host="app.diagrams.net" modified="2023-04-03T10:53:43.526Z" agent="Mozilla/5.0 (Windows NT 10.0; Win64; x64) AppleWebKit/537.36 (KHTML, like Gecko) Chrome/111.0.0.0 Safari/537.36" etag="LfrLlDCAmGKjkMUG7mw-" version="21.1.4" type="github">
  <diagram name="Page-1" id="NRlMn2VisgQH5gJqkUGa">
    <mxGraphModel dx="1050" dy="1649" grid="1" gridSize="10" guides="1" tooltips="1" connect="1" arrows="1" fold="1" page="1" pageScale="1" pageWidth="850" pageHeight="1100" math="0" shadow="0">
      <root>
        <mxCell id="0" />
        <mxCell id="1" parent="0" />
        <mxCell id="jJGpmuT6PC6DJMZoDN5O-1" value="" style="group" vertex="1" connectable="0" parent="1">
          <mxGeometry x="10" y="-40" width="850" height="615" as="geometry" />
        </mxCell>
        <mxCell id="jJGpmuT6PC6DJMZoDN5O-2" value="" style="rounded=0;whiteSpace=wrap;html=1;" vertex="1" parent="jJGpmuT6PC6DJMZoDN5O-1">
          <mxGeometry width="850" height="600" as="geometry" />
        </mxCell>
        <mxCell id="jJGpmuT6PC6DJMZoDN5O-3" value="" style="group" vertex="1" connectable="0" parent="jJGpmuT6PC6DJMZoDN5O-1">
          <mxGeometry width="850" height="50" as="geometry" />
        </mxCell>
        <mxCell id="jJGpmuT6PC6DJMZoDN5O-4" value="" style="rounded=0;whiteSpace=wrap;html=1;" vertex="1" parent="jJGpmuT6PC6DJMZoDN5O-3">
          <mxGeometry width="850" height="50" as="geometry" />
        </mxCell>
        <mxCell id="jJGpmuT6PC6DJMZoDN5O-5" value="nav bar" style="text;html=1;strokeColor=none;fillColor=none;align=center;verticalAlign=middle;whiteSpace=wrap;rounded=0;" vertex="1" parent="jJGpmuT6PC6DJMZoDN5O-3">
          <mxGeometry width="850" height="50" as="geometry" />
        </mxCell>
        <mxCell id="jJGpmuT6PC6DJMZoDN5O-6" value="" style="group" vertex="1" connectable="0" parent="jJGpmuT6PC6DJMZoDN5O-1">
          <mxGeometry y="580" width="850" height="35" as="geometry" />
        </mxCell>
        <mxCell id="jJGpmuT6PC6DJMZoDN5O-7" value="" style="rounded=0;whiteSpace=wrap;html=1;" vertex="1" parent="jJGpmuT6PC6DJMZoDN5O-6">
          <mxGeometry width="850" height="35.000000000000014" as="geometry" />
        </mxCell>
        <mxCell id="jJGpmuT6PC6DJMZoDN5O-8" value="Footer, (school naam of eigen naam)" style="text;html=1;strokeColor=none;fillColor=none;align=center;verticalAlign=middle;whiteSpace=wrap;rounded=0;" vertex="1" parent="jJGpmuT6PC6DJMZoDN5O-6">
          <mxGeometry width="850" height="35.000000000000014" as="geometry" />
        </mxCell>
        <mxCell id="jJGpmuT6PC6DJMZoDN5O-14" value="" style="group" vertex="1" connectable="0" parent="jJGpmuT6PC6DJMZoDN5O-1">
          <mxGeometry x="390" y="330" width="120" height="60" as="geometry" />
        </mxCell>
        <mxCell id="jJGpmuT6PC6DJMZoDN5O-15" value="" style="rounded=0;whiteSpace=wrap;html=1;" vertex="1" parent="jJGpmuT6PC6DJMZoDN5O-14">
          <mxGeometry width="120" height="60" as="geometry" />
        </mxCell>
        <mxCell id="jJGpmuT6PC6DJMZoDN5O-16" value="project 2" style="text;html=1;strokeColor=none;fillColor=none;align=center;verticalAlign=middle;whiteSpace=wrap;rounded=0;" vertex="1" parent="jJGpmuT6PC6DJMZoDN5O-14">
          <mxGeometry width="120" height="60" as="geometry" />
        </mxCell>
        <mxCell id="jJGpmuT6PC6DJMZoDN5O-18" value="project 2" style="text;html=1;strokeColor=none;fillColor=none;align=center;verticalAlign=middle;whiteSpace=wrap;rounded=0;" vertex="1" parent="jJGpmuT6PC6DJMZoDN5O-1">
          <mxGeometry x="390" y="180" width="120" height="60" as="geometry" />
        </mxCell>
        <mxCell id="jJGpmuT6PC6DJMZoDN5O-19" value="foto project 1" style="ellipse;whiteSpace=wrap;html=1;" vertex="1" parent="jJGpmuT6PC6DJMZoDN5O-1">
          <mxGeometry x="140" y="160" width="120" height="80" as="geometry" />
        </mxCell>
        <mxCell id="jJGpmuT6PC6DJMZoDN5O-21" value="foto project 2" style="ellipse;whiteSpace=wrap;html=1;" vertex="1" parent="jJGpmuT6PC6DJMZoDN5O-1">
          <mxGeometry x="140" y="320" width="120" height="80" as="geometry" />
        </mxCell>
        <mxCell id="jJGpmuT6PC6DJMZoDN5O-20" value="foto project 1" style="ellipse;whiteSpace=wrap;html=1;" vertex="1" parent="1">
          <mxGeometry x="150" y="120" width="120" height="80" as="geometry" />
        </mxCell>
      </root>
    </mxGraphModel>
  </diagram>
</mxfile>
